<svg width="147" height="46" viewBox="0 0 147 46" fill="none" xmlns="http://www.w3.org/2000/svg">
<g clip-path="url(#clip0_122_234)">
<path d="M61.3661 15.0433C60.9918 15.3888 60.5527 15.5542 60.0671 15.5542H58.2938V11.1076H60.0393C60.6259 11.1076 61.0859 11.2762 61.4231 11.6143C61.7558 11.9465 61.9284 12.4992 61.9284 13.2729C61.9284 14.1114 61.7408 14.695 61.3661 15.0433ZM64.8478 15.6534C65.0734 14.9569 65.1913 14.1762 65.1913 13.3239C65.1913 12.3453 65.0627 11.505 64.8122 10.7878C64.5624 10.0752 64.2042 9.49211 63.7511 9.02898C63.3042 8.56539 62.7574 8.22308 62.1219 8.00117C61.4819 7.77328 60.7918 7.66669 60.0388 7.66669H54.9652V25.5556H58.2934V19.0286H60.2269C60.9918 19.0286 61.6812 18.8921 62.294 18.6137C62.9028 18.3403 63.4306 17.9575 63.8617 17.4651C64.2814 16.9642 64.6166 16.3592 64.8478 15.6534Z" fill="#005A99"/>
<path d="M71.4783 21.3579C71.1933 20.9184 71.0537 20.3631 71.0537 19.6843V13.1563C71.0537 12.955 71.0868 12.7394 71.1535 12.5128C71.2276 12.2835 71.3334 12.0737 71.4783 11.8783C71.6233 11.6879 71.8108 11.5296 72.0413 11.4017C72.2698 11.2714 72.5568 11.2063 72.8894 11.2063C73.2206 11.2063 73.5019 11.2859 73.7227 11.4216C73.947 11.5722 74.1252 11.7372 74.264 11.9403C74.393 12.1469 74.4949 12.3595 74.5482 12.5779C74.6023 12.7931 74.6248 12.9917 74.6248 13.1559V20.1139C74.6248 20.7063 74.4577 21.1649 74.1113 21.5045C73.7677 21.8418 73.3566 22.0119 72.8894 22.0119C72.2301 22.0119 71.7636 21.7971 71.4783 21.3579ZM74.9388 25.1636C75.5588 24.903 76.0948 24.5263 76.5374 24.0271C76.9969 23.5283 77.3428 22.929 77.5918 22.2249C77.8449 21.528 77.9739 20.7398 77.9739 19.8642V13.3128C77.9739 12.6186 77.8695 11.9385 77.6652 11.2606C77.456 10.5872 77.1529 9.97985 76.7364 9.44984C76.3257 8.92254 75.7996 8.49156 75.1555 8.16323C74.5114 7.8313 73.7567 7.66669 72.8894 7.66669C71.9528 7.66669 71.1613 7.83672 70.5172 8.18268C69.8682 8.52819 69.3366 8.97454 68.9288 9.51631C68.5124 10.0558 68.2093 10.6568 68.0268 11.3257C67.8502 11.9859 67.7478 12.6543 67.7478 13.3128V19.5816C67.7478 20.3834 67.8502 21.14 68.0398 21.8613C68.2364 22.5913 68.5365 23.2243 68.9444 23.7728C69.3633 24.3196 69.8898 24.7533 70.5401 25.0735C71.1888 25.3969 71.9782 25.5556 72.8898 25.5556C73.6367 25.5556 74.3176 25.4245 74.9388 25.1636Z" fill="#005A99"/>
<path d="M83.1556 23.77C83.613 24.3168 84.2176 24.7506 84.9519 25.0685C85.683 25.3941 86.579 25.5556 87.622 25.5556C89.0897 25.5556 90.3394 25.1648 91.3601 24.391C92.3793 23.6126 93.0258 22.5416 93.288 21.1762L89.6985 20.1617C89.6256 20.7371 89.3942 21.1848 88.9925 21.5163C88.5961 21.8424 88.1299 22.0097 87.622 22.0097C86.8657 22.0097 86.3466 21.7971 86.0409 21.3549C85.7392 20.9152 85.5858 20.3599 85.5858 19.6828V13.1528C85.5858 12.9516 85.6165 12.7358 85.6951 12.5092C85.7616 12.2799 85.8731 12.07 86.0344 11.8747C86.1881 11.6843 86.3973 11.5233 86.6488 11.3957C86.9114 11.2677 87.2311 11.2053 87.622 11.2053C87.9785 11.2053 88.2918 11.2736 88.5529 11.4043C88.809 11.5427 89.0283 11.7078 89.199 11.8864C89.3709 12.0732 89.4978 12.2799 89.5828 12.5097C89.6558 12.7363 89.7112 12.9407 89.7478 13.1021L93.313 12.0651C93.1931 11.4952 92.9761 10.9425 92.6912 10.407C92.3858 9.87742 92.0056 9.41248 91.5395 9.00949C91.0761 8.59883 90.509 8.27318 89.8519 8.03076C89.1929 7.78337 88.4507 7.66669 87.6225 7.66669C86.5572 7.66669 85.662 7.83313 84.9216 8.17911C84.1878 8.52737 83.5934 8.97106 83.1305 9.51152C82.6727 10.0525 82.3325 10.6535 82.1289 11.3238C81.9175 11.9823 81.8087 12.6512 81.8087 13.3097V19.5815C81.8087 20.3811 81.9249 21.1346 82.1439 21.8591C82.3609 22.5859 82.6979 23.2195 83.1556 23.77Z" fill="#005A99"/>
<path d="M99.316 12.509C99.3818 12.2797 99.4823 12.0698 99.6144 11.8744C99.7554 11.6841 99.9424 11.5231 100.17 11.3955C100.403 11.2675 100.692 11.2051 101.03 11.2051C101.352 11.2051 101.624 11.2734 101.86 11.4041C102.092 11.5425 102.283 11.7076 102.439 11.8862C102.594 12.073 102.708 12.2797 102.773 12.5094C102.839 12.736 102.892 12.9405 102.924 13.1018L106.096 12.0648C105.986 11.495 105.804 10.9424 105.539 10.4069C105.283 9.87731 104.937 9.41239 104.52 9.00943C104.103 8.59879 103.599 8.27316 103.021 8.03075C102.429 7.78337 101.764 7.66669 101.03 7.66669C100.086 7.66669 99.2888 7.83312 98.6347 8.17909C97.9741 8.52732 97.4429 8.97099 97.0357 9.51143C96.6287 10.0523 96.3304 10.6534 96.1439 11.3236C95.961 11.9821 95.8696 12.651 95.8696 13.3095V19.5808C95.8696 20.3804 95.961 21.134 96.1567 21.8585C96.3457 22.5851 96.6441 23.2197 97.0577 23.7701C97.4664 24.3169 98.0043 24.7506 98.6575 25.0685C99.3082 25.3941 100.1 25.5556 101.03 25.5556C102.34 25.5556 103.448 25.1648 104.36 24.391C105.269 23.6127 105.838 22.5418 106.071 21.1764L102.882 20.1619C102.822 20.7372 102.606 21.1849 102.253 21.5165C101.9 21.8426 101.493 22.0099 101.03 22.0099C100.363 22.0099 99.8969 21.7974 99.628 21.355C99.3565 20.9155 99.2217 20.3601 99.2217 19.683V13.1535C99.2217 12.9522 99.2536 12.7355 99.316 12.509Z" fill="#005A99"/>
<path d="M109.93 25.5556H118.878V22.0375H113.133V18.2339H118.081V14.81H113.133V11.1118H118.878V7.66669H109.93V25.5556Z" fill="#005A99"/>
<path d="M121.435 11.0585H125.314V25.5556H129.065V11.0585H132.939V7.66669H121.435V11.0585Z" fill="#005A99"/>
<path d="M143.845 7.66669L139.031 18.0525H138.983V7.66669H135.496V25.5556H138.786L143.482 15.8181H143.505V25.5556H147V7.66669H143.845Z" fill="#005A99"/>
<path d="M27.8923 14.0555L14.0609 44.2875C16.8459 45.3861 19.8936 46 23.1042 46C26.234 46 29.2164 45.4128 31.9565 44.3481L28.5222 14.1458C28.3035 14.1368 28.0936 14.1067 27.8923 14.0555Z" fill="#005A99"/>
<path d="M26.3827 12.7778L1.27826 29.6616C2.99844 35.5699 6.94007 40.4975 12.1114 43.4444L26.8435 13.2049C26.6805 13.0832 26.5193 12.9379 26.3827 12.7778Z" fill="#005A99"/>
<path d="M29.4004 14.4035L34.0194 43.4444C39.1498 40.5678 43.0576 35.7436 44.7391 29.9395L30.1285 14.0555C29.9091 14.2053 29.6571 14.3221 29.4004 14.4035Z" fill="#005A99"/>
<path d="M26.8431 8.63711L22.0638 0C15.8467 0.369312 10.2977 3.31004 6.39131 7.81637L25.8225 10.2222C26.0003 9.59101 26.3575 9.0446 26.8431 8.63711Z" fill="#005A99"/>
<path d="M31.2178 11.4434C31.1912 12.0374 30.9986 12.5873 30.6783 13.0413L45.7355 26.8333C45.9167 25.6882 46.0174 24.5101 46.0174 23.3039C46.0174 18.4294 44.4206 13.9178 41.72 10.2222L31.2178 11.4434Z" fill="#005A99"/>
<path d="M25.3932 11.3343L3.97547 10.2222C1.46496 13.882 0 18.3006 0 23.0652C0 24.347 0.107024 25.6113 0.316304 26.8333L25.5652 12.1089C25.4725 11.8682 25.4192 11.6021 25.3932 11.3343Z" fill="#005A99"/>
<path d="M28.2411 8.18256C29.4865 8.21793 30.5415 9.04803 30.9985 10.2222L39.6261 8.00294C35.793 3.41277 30.3643 0.411608 24.287 0L27.4761 8.2827C27.7183 8.22437 27.9729 8.1798 28.2411 8.18256Z" fill="#005A99"/>
<path d="M61.8263 33.239H60.1486C60.0738 33.5785 59.954 34.0156 59.8039 34.5815C59.6539 35.1475 59.5042 35.7456 59.3394 36.3442C59.1747 36.9587 59.025 37.541 58.8901 38.0911C58.7404 38.6406 58.6207 39.0614 58.5454 39.3687H58.4706L57.7215 36.7164L56.7328 33.239H54.9652L57.6765 41.7141C57.6613 41.795 57.6315 41.8757 57.6016 41.9406C57.5718 42.0214 57.5415 42.0863 57.5268 42.1512C57.3919 42.4907 57.2423 42.7335 57.0922 42.8465C56.9275 42.9599 56.7475 43.0244 56.5382 43.0244H55.924V44.5447H56.7631C57.0325 44.5284 57.2873 44.4962 57.5121 44.4476C57.7366 44.3991 57.9615 44.2861 58.1561 44.1081C58.3512 43.9461 58.5457 43.7038 58.7253 43.3802C58.9048 43.073 59.07 42.6522 59.2347 42.1185C59.6842 40.6304 60.1184 39.1427 60.5378 37.6708C60.9573 36.1991 61.3915 34.7272 61.8263 33.239ZM69.3913 35.1475C69.2412 34.7108 69.032 34.355 68.7469 34.0636C68.4624 33.7887 68.1328 33.5785 67.7431 33.4328C67.3535 33.2871 66.9192 33.2227 66.4249 33.2227H63.279V44.4798H64.9864V40.1611H66.5144C67.0386 40.1611 67.4883 40.0645 67.8777 39.8861C68.2669 39.7081 68.5968 39.4653 68.8512 39.158C69.106 38.8508 69.2858 38.4786 69.4203 38.0584C69.5553 37.6377 69.6154 37.1853 69.6154 36.6996C69.6154 36.1014 69.541 35.5841 69.3913 35.1475ZM67.5636 37.9454C67.3089 38.2527 66.9343 38.4147 66.4249 38.4147H64.9869V34.9373H66.4101C66.9192 34.9373 67.2938 35.0831 67.5485 35.3744C67.8033 35.6816 67.9231 36.1023 67.9231 36.6519C67.9231 37.202 67.8033 37.6219 67.5636 37.9454ZM75.6201 44.4798H77.4327L74.4065 33.2227H72.7587L69.7478 44.4798H71.5306C71.5604 44.3827 71.6054 44.2212 71.6654 43.9947C71.7104 43.7682 71.7705 43.5255 71.8449 43.2667C71.9051 43.0081 71.9648 42.7652 72.0249 42.5388C72.085 42.3123 72.13 42.1507 72.1447 42.0536H75.0358L75.6201 44.4798ZM73.5528 35.7783H73.6277C73.6428 35.8749 73.6727 36.0369 73.7176 36.2471C73.7625 36.4735 73.8222 36.7164 73.8824 36.9587C73.9273 37.2011 73.9875 37.4439 74.0325 37.6704C74.0774 37.8969 74.1073 38.0584 74.122 38.1555L74.6462 40.4035H72.5188L73.0581 38.1392L73.5528 35.7783ZM81.5837 34.9369H83.9507V44.4795H85.6435V33.2222H80.0107V39.3682C80.0107 40.0154 79.9809 40.5491 79.9359 40.9858C79.8758 41.4224 79.7862 41.7781 79.6514 42.0696C79.5164 42.3604 79.3516 42.6032 79.1419 42.7812C78.9174 42.9754 78.6475 43.1369 78.3331 43.2827L78.7972 44.7222C79.3365 44.6093 79.7858 44.4149 80.1457 44.1399C80.5051 43.8812 80.7897 43.5255 81.0145 43.0725C81.2243 42.6359 81.374 42.0858 81.4639 41.4228C81.5387 40.7761 81.5837 39.9996 81.5837 39.11V34.9369Z" fill="#005A99"/>
</g>
<defs>
<clipPath id="clip0_122_234">
<rect width="147" height="46" fill="white"/>
</clipPath>
</defs>
</svg>
